<svg width="183" height="100" viewBox="0 0 183 100" fill="none" xmlns="http://www.w3.org/2000/svg">
<path fill-rule="evenodd" clip-rule="evenodd" d="M166.812 21.8962C165.103 21.9403 163.217 21.9889 161.937 22.0221C160.612 20.6191 159.286 19.1657 157.986 17.7416C157.536 17.2492 157.09 16.7603 156.648 16.2782C155.924 15.5771 156.951 14.17 157.917 15.0715L162.423 19.9171L164.667 19.8591L164.675 19.6988L161.331 16.1366C160.409 15.2765 161.625 14.0034 162.622 14.8568L163.402 15.6635L163.997 14.9924C164.426 14.6576 164.942 14.8485 165.213 15.2173C165.398 15.4679 165.463 15.9521 165.244 16.2076L164.576 16.9937L165.631 18.1267L166.636 16.9537L165.947 16.195C165.24 15.4258 166.39 14.2166 167.118 14.9193L167.747 15.5244L168.544 14.6371C169.24 13.976 170.483 14.8968 169.725 16.0693L166.684 19.6469L166.688 19.8068L168.737 19.754C169.565 18.8538 170.288 17.9876 171.012 17.1206C171.705 16.2903 172.398 15.4593 173.185 14.5971C173.904 13.9382 175.275 14.6324 174.523 15.8961L169.338 21.8309C168.635 21.8491 167.75 21.8719 166.812 21.8962Z" fill="#27292D"/>
<path fill-rule="evenodd" clip-rule="evenodd" d="M0.0273438 35.0547H43.0397V64.1859H0.0273438V35.0547ZM1.53975 36.5671V62.6735H41.5273V36.5671H1.53975Z" fill="#27292D"/>
<path d="M0 36.5723V7.39453H70.7472V27.3582H69.2092V8.9302H1.53798V35.0366H41.5255V36.5723H0Z" fill="#27292D"/>
<path d="M0 62.6817L0 91.8594L70.7472 91.8594V71.8957H69.2092V90.3237L1.53798 90.3237L1.53798 64.2173H41.5255L41.5255 62.6817H0Z" fill="#27292D"/>
<path fill-rule="evenodd" clip-rule="evenodd" d="M183.001 50.3672V7.41498L112.305 7.41498V28.8678L139.988 28.8678V50.3672L183.001 50.3672ZM141.501 27.3554L113.817 27.3554V8.92738L181.488 8.92738V48.8548L141.501 48.8548V27.3554Z" fill="#27292D"/>
<path fill-rule="evenodd" clip-rule="evenodd" d="M183.001 48.8828V93.3707H112.305V71.9179H139.988V48.8828L183.001 48.8828ZM141.501 73.4303H113.817V91.8583H181.488V50.3952L141.501 50.3952V73.4303Z" fill="#27292D"/>
<path fill-rule="evenodd" clip-rule="evenodd" d="M113.809 0.126712L69.2071 0V27.0767L41.5234 27.2034V73.4526L69.2071 73.3259V99.6918L113.809 99.8185V73.4526L141.492 73.5311V27.3037L113.809 27.3616V0.126712ZM139.98 28.8193L112.296 28.8772V1.63482L70.7195 1.5167V28.5821L43.0358 28.7089V71.9333L70.7195 71.8066V98.1837L112.296 98.3018V71.9359L139.98 72.0144V28.8193Z" fill="#27292D"/>
<path fill-rule="evenodd" clip-rule="evenodd" d="M81.6963 55.1744L78.4187 58.4471V58.7622H104.893V58.4471L101.615 55.1744V54.5473C101.615 51.0859 101.153 47.222 99.9457 44.0167C98.901 41.2429 97.3723 39.1375 95.263 38.0589C94.3855 39.0616 93.0953 39.696 91.6558 39.696C90.2162 39.696 88.926 39.0616 88.0486 38.0589C85.9392 39.1375 84.4106 41.2429 83.3659 44.0167C82.1586 47.222 81.6963 51.086 81.6963 54.5473V55.1744ZM95.7022 36.5893C101.434 39.2858 103.128 47.7954 103.128 54.5473L106.405 57.82V60.2746H76.9062V57.82L80.1839 54.5473C80.1839 47.7955 81.8779 39.2859 87.6092 36.5893C87.9379 36.4347 88.2798 36.2992 88.6354 36.1842C89.1329 37.3591 90.2979 38.1836 91.6557 38.1836C91.6557 38.1836 91.6557 38.1836 91.6557 38.1836C93.0136 38.1836 94.1786 37.3591 94.6761 36.1842C95.0317 36.2992 95.3736 36.4347 95.7022 36.5893ZM88.8118 34.5377C88.7959 34.6597 88.7878 34.7842 88.7878 34.9105C88.7878 35.3056 88.8679 35.682 89.0128 36.0244C89.448 37.0526 90.4675 37.7742 91.6557 37.7742C91.6557 37.7742 91.6557 37.7742 91.6557 37.7742C92.844 37.7742 93.8634 37.0526 94.2986 36.0244C94.4435 35.682 94.5237 35.3056 94.5237 34.9105C94.5237 34.7842 94.5155 34.6597 94.4996 34.5377C94.3166 33.1323 93.1131 32.0469 91.6557 32.0469C90.1983 32.0469 88.9948 33.1323 88.8118 34.5377ZM91.6557 36.2618C92.4065 36.2618 93.0113 35.6546 93.0113 34.9105C93.0113 34.1664 92.4065 33.5593 91.6557 33.5593C90.9049 33.5593 90.3002 34.1664 90.3002 34.9105C90.3002 35.6546 90.9049 36.2618 91.6557 36.2618ZM89.1975 61.9126C89.1979 62.4629 89.3834 62.994 89.7196 63.4231C89.7806 63.501 89.8467 63.5756 89.9175 63.6463C90.3785 64.1066 91.0038 64.3652 91.6557 64.3652C92.3077 64.3652 92.933 64.1066 93.394 63.6463C93.4648 63.5756 93.5308 63.501 93.5919 63.4231C93.9284 62.9936 94.114 62.4617 94.114 61.9107L89.1975 61.9107C89.1975 61.9113 89.1975 61.9119 89.1975 61.9126Z" fill="#27292D"/>
</svg>
