<svg width="40" height="40" viewBox="0 0 40 40" fill="none" xmlns="http://www.w3.org/2000/svg">
    <path fill-rule="evenodd" clip-rule="evenodd" d="M40 20C40 31.0457 31.0457 40 20 40C8.9543 40 0 31.0457 0 20C0 8.9543 8.9543 0 20 0C31.0457 0 40 8.9543 40 20ZM30.2862 15.535V25C30.2863 25.7652 29.9856 26.5015 29.4456 27.0583C28.9057 27.615 28.1673 27.9501 27.3816 27.995L27.2005 28H12.8006C12.0135 28 11.2561 27.7077 10.6835 27.1827C10.1108 26.6577 9.76616 25.9399 9.71999 25.176L9.71484 25V15.535L19.4297 21.832L19.549 21.898C19.6896 21.9648 19.844 21.9995 20.0005 21.9995C20.157 21.9995 20.3115 21.9648 20.4521 21.898L20.5714 21.832L30.2862 15.535ZM29.8279 13.427C29.2848 12.57 28.3107 12 27.1999 12H12.7999L12.5931 12.007C12.1023 12.0389 11.6265 12.1844 11.2053 12.4314C10.7841 12.6784 10.4298 13.0198 10.1719 13.427L19.9999 19.797L29.8279 13.427Z" fill="#597d69"/>
</svg>
