<svg width="248" height="50" viewBox="0 0 248 50" fill="none" xmlns="http://www.w3.org/2000/svg">
    <g clip-path="url(#clip0_2721_92642)">
        <path d="M29.3624 4H48.6581V15.3416H59.9976V34.6081H48.6581V45.9296H29.3624V34.6086H18.0366V15.3416H29.3624V4Z" fill="#990000"/>
        <path d="M0 7.77307H27.2657V13.6432H16.3594V18.2555H0V7.77307Z" fill="white"/>
        <path fill-rule="evenodd" clip-rule="evenodd" d="M50.7563 7.78617L76.7636 7.77307V24.1256L61.6626 24.1387V13.6945H50.7563V7.78617Z" fill="#003399"/>
        <path fill-rule="evenodd" clip-rule="evenodd" d="M67.7798 14.3365C67.0096 13.5201 66.2388 12.6744 65.4832 11.8458C65.222 11.5593 64.9626 11.2748 64.7057 10.9943C64.2848 10.5863 64.8818 9.76754 65.4433 10.2921L68.0625 13.1117L69.3669 13.0779L69.3716 12.9846L67.4273 10.9119C66.8915 10.4114 67.5982 9.67061 68.1778 10.1672L68.6314 10.6366L68.977 10.2461C69.2267 10.0513 69.5264 10.1624 69.6842 10.3769C69.7915 10.5228 69.8294 10.8045 69.7019 10.9532L69.3139 11.4106L69.927 12.0699L70.5109 11.3873L70.1109 10.9459C69.6995 10.4983 70.3684 9.79466 70.7914 10.2035L71.1567 10.5557L71.6201 10.0393C72.0249 9.65469 72.7471 10.1905 72.3064 10.8727L70.539 12.9545L70.5414 13.0475L71.7326 13.0168C72.2137 12.4929 72.6339 11.9889 73.0545 11.4845C73.4574 11.0013 73.8606 10.5178 74.3177 10.0161C74.7358 9.63264 75.5327 10.0366 75.0955 10.7719L72.0682 14.3365C70.9153 14.3664 68.9326 14.3066 67.7798 14.3365Z" fill="white"/>
        <path d="M76.7632 42.1566L50.7559 42.1566L50.7559 36.2865L61.6622 36.2865L61.6622 25.8041L76.7632 25.8041L76.7632 42.1566Z" fill="#006600"/>
        <path d="M0 42.1566H27.2657V36.2862H16.3594V31.6735H0L0 42.1566Z" fill="#CA1911"/>
        <rect y="19.9336" width="16.3594" height="10.0631" fill="#012A86"/>
        <ellipse cx="38.8518" cy="18.7132" rx="1.2034" ry="1.2029" fill="#FFCA42"/>
        <path d="M37.5847 19.3137C34.833 20.2043 34.0384 24.0285 34.0384 27.0273L32.6631 28.402V29.4331H45.0409V28.402L43.6656 27.0273C43.6656 24.0285 42.871 20.2042 40.1193 19.3137C39.9106 19.8073 39.4218 20.1536 38.852 20.1536C38.2823 20.1536 37.7934 19.8073 37.5847 19.3137Z" fill="#FFCA42"/>
        <path d="M39.8828 30.1202C39.8828 30.3936 39.7741 30.6559 39.5807 30.8492C39.3872 31.0426 39.1249 31.1512 38.8513 31.1512C38.5777 31.1512 38.3154 31.0426 38.1219 30.8492C37.9285 30.6559 37.8198 30.3936 37.8198 30.1202L38.8513 30.1202H39.8828Z" fill="#FFCA42"/>
        <path d="M92.772 21C92.508 20.62 92.258 20.264 92.022 19.932C91.79 19.596 91.562 19.266 91.338 18.942L90.21 17.328H89.658V15.78H90.186L91.194 14.46C91.434 14.148 91.672 13.838 91.908 13.53C92.144 13.218 92.418 12.856 92.73 12.444H95.004C94.632 12.896 94.268 13.34 93.912 13.776C93.56 14.212 93.206 14.652 92.85 15.096L91.494 16.77L91.458 15.9L92.964 17.982C93.196 18.302 93.444 18.646 93.708 19.014C93.976 19.382 94.236 19.74 94.488 20.088C94.74 20.436 94.962 20.74 95.154 21H92.772ZM87.846 21C87.846 20.54 87.846 20.094 87.846 19.662C87.846 19.23 87.846 18.746 87.846 18.21V15.306C87.846 14.754 87.846 14.256 87.846 13.812C87.846 13.368 87.846 12.912 87.846 12.444H89.814C89.814 12.912 89.814 13.368 89.814 13.812C89.814 14.256 89.814 14.754 89.814 15.306V18.21C89.814 18.746 89.814 19.23 89.814 19.662C89.814 20.094 89.814 20.54 89.814 21H87.846ZM97.5329 21C97.7009 20.636 97.8709 20.262 98.0429 19.878C98.2149 19.494 98.3949 19.092 98.5829 18.672L96.7709 14.898C96.5749 14.49 96.3869 14.1 96.2069 13.728C96.0309 13.352 95.8269 12.924 95.5949 12.444H97.8149C97.9389 12.752 98.0489 13.028 98.1449 13.272C98.2449 13.516 98.3349 13.744 98.4149 13.956C98.4989 14.164 98.5829 14.374 98.6669 14.586C98.7509 14.794 98.8429 15.02 98.9429 15.264L99.5609 16.806H99.7049L100.293 15.288C100.393 15.036 100.483 14.804 100.563 14.592C100.647 14.376 100.729 14.162 100.809 13.95C100.893 13.734 100.981 13.506 101.073 13.266C101.169 13.022 101.277 12.748 101.397 12.444H103.527C103.287 12.968 103.041 13.508 102.789 14.064C102.541 14.62 102.309 15.132 102.093 15.6L100.869 18.3C100.685 18.716 100.483 19.164 100.263 19.644C100.047 20.12 99.8409 20.572 99.6449 21H97.5329ZM111.652 21.024C111.3 20.512 110.948 20 110.596 19.488C110.248 18.976 109.898 18.464 109.546 17.952C109.898 17.44 110.248 16.928 110.596 16.416C110.948 15.904 111.3 15.392 111.652 14.88L113.404 14.988C113.072 15.472 112.74 15.958 112.408 16.446C112.076 16.93 111.742 17.416 111.406 17.904V18.048C111.742 18.528 112.076 19.008 112.408 19.488C112.74 19.968 113.072 20.45 113.404 20.934L111.652 21.024ZM108.442 21.024C108.09 20.512 107.738 20 107.386 19.488C107.038 18.976 106.688 18.464 106.336 17.952C106.688 17.44 107.038 16.928 107.386 16.416C107.738 15.904 108.09 15.392 108.442 14.88L110.194 14.988C109.862 15.472 109.53 15.958 109.198 16.446C108.866 16.93 108.532 17.416 108.196 17.904V18.048C108.532 18.528 108.866 19.008 109.198 19.488C109.53 19.968 109.862 20.45 110.194 20.934L108.442 21.024ZM121.271 22.824L121.163 20.694L121.511 21H114.659C114.659 20.54 114.659 20.094 114.659 19.662C114.659 19.23 114.659 18.746 114.659 18.21V15.306C114.659 14.754 114.659 14.256 114.659 13.812C114.659 13.368 114.659 12.912 114.659 12.444H116.633C116.633 12.912 116.633 13.368 116.633 13.812C116.633 14.256 116.633 14.754 116.633 15.306V17.892C116.633 18.428 116.633 18.912 116.633 19.344C116.633 19.776 116.633 20.222 116.633 20.682L115.721 19.356H119.681C120.205 19.356 120.741 19.356 121.289 19.356C121.841 19.356 122.387 19.356 122.927 19.356C122.927 19.644 122.927 19.938 122.927 20.238C122.927 20.538 122.927 20.834 122.927 21.126C122.927 21.406 122.927 21.688 122.927 21.972C122.927 22.256 122.927 22.54 122.927 22.824H121.271ZM119.849 20.682C119.849 20.222 119.849 19.776 119.849 19.344C119.849 18.912 119.849 18.428 119.849 17.892V15.306C119.849 14.754 119.849 14.256 119.849 13.812C119.849 13.368 119.849 12.912 119.849 12.444H121.829C121.829 12.912 121.829 13.368 121.829 13.812C121.829 14.256 121.829 14.754 121.829 15.306V17.892C121.829 18.428 121.829 18.912 121.829 19.344C121.829 19.776 121.829 20.222 121.829 20.682H119.849ZM123.992 21C123.992 20.54 123.992 20.094 123.992 19.662C123.992 19.23 123.992 18.746 123.992 18.21V15.306C123.992 14.754 123.992 14.256 123.992 13.812C123.992 13.368 123.992 12.912 123.992 12.444H129.674V14.058C129.306 14.058 128.91 14.058 128.486 14.058C128.066 14.058 127.57 14.058 126.998 14.058H124.982L125.924 12.756C125.924 13.224 125.924 13.68 125.924 14.124C125.924 14.568 125.924 15.066 125.924 15.618V17.898C125.924 18.43 125.924 18.914 125.924 19.35C125.924 19.782 125.924 20.228 125.924 20.688L125.108 19.386H127.142C127.618 19.386 128.068 19.386 128.492 19.386C128.92 19.386 129.332 19.386 129.728 19.386V21H123.992ZM125.474 17.436V15.936H127.04C127.568 15.936 128.02 15.936 128.396 15.936C128.772 15.936 129.134 15.936 129.482 15.936V17.436C129.114 17.436 128.742 17.436 128.366 17.436C127.99 17.436 127.548 17.436 127.04 17.436H125.474ZM136.493 21C136.493 20.54 136.493 20.094 136.493 19.662C136.493 19.23 136.493 18.746 136.493 18.21V15.306C136.493 14.754 136.493 14.256 136.493 13.812C136.493 13.368 136.493 12.912 136.493 12.444H138.473C138.473 12.912 138.473 13.368 138.473 13.812C138.473 14.256 138.473 14.754 138.473 15.306V18.21C138.473 18.746 138.473 19.23 138.473 19.662C138.473 20.094 138.473 20.54 138.473 21H136.493ZM131.159 21C131.159 20.54 131.159 20.094 131.159 19.662C131.159 19.23 131.159 18.746 131.159 18.21V15.306C131.159 14.754 131.159 14.256 131.159 13.812C131.159 13.368 131.159 12.912 131.159 12.444H133.133C133.133 12.912 133.133 13.368 133.133 13.812C133.133 14.256 133.133 14.754 133.133 15.306V18.21C133.133 18.746 133.133 19.23 133.133 19.662C133.133 20.094 133.133 20.54 133.133 21H131.159ZM132.593 17.514V15.87H137.075V17.514H132.593ZM142.205 21C142.205 20.54 142.205 20.094 142.205 19.662C142.205 19.23 142.205 18.746 142.205 18.21V15.618C142.205 15.066 142.205 14.568 142.205 14.124C142.205 13.68 142.205 13.224 142.205 12.756L142.949 14.166H141.815C141.363 14.166 140.963 14.166 140.615 14.166C140.267 14.166 139.935 14.166 139.619 14.166V12.444H146.753V14.166C146.441 14.166 146.111 14.166 145.763 14.166C145.415 14.166 145.013 14.166 144.557 14.166H143.423L144.173 12.756C144.173 13.224 144.173 13.68 144.173 14.124C144.173 14.568 144.173 15.066 144.173 15.618V18.21C144.173 18.746 144.173 19.23 144.173 19.662C144.173 20.094 144.173 20.54 144.173 21H142.205ZM147.899 21C147.899 20.54 147.899 20.094 147.899 19.662C147.899 19.23 147.899 18.746 147.899 18.21V15.306C147.899 14.754 147.899 14.256 147.899 13.812C147.899 13.368 147.899 12.912 147.899 12.444C148.247 12.444 148.713 12.444 149.297 12.444C149.885 12.444 150.563 12.444 151.331 12.444C152.023 12.444 152.601 12.53 153.065 12.702C153.533 12.874 153.883 13.158 154.115 13.554C154.351 13.946 154.469 14.474 154.469 15.138C154.469 15.702 154.369 16.2 154.169 16.632C153.969 17.06 153.645 17.396 153.197 17.64C152.749 17.88 152.157 18 151.421 18C151.225 18 151.015 18 150.791 18C150.571 18 150.355 18 150.143 18C149.931 18 149.749 18 149.597 18V16.5H150.971C151.315 16.5 151.597 16.454 151.817 16.362C152.037 16.27 152.199 16.128 152.303 15.936C152.411 15.74 152.465 15.488 152.465 15.18C152.465 14.936 152.427 14.736 152.351 14.58C152.279 14.424 152.181 14.304 152.057 14.22C151.933 14.136 151.795 14.078 151.643 14.046C151.495 14.01 151.345 13.992 151.193 13.992H148.901L149.843 12.756C149.843 13.224 149.843 13.68 149.843 14.124C149.843 14.568 149.843 15.066 149.843 15.618V18.21C149.843 18.746 149.843 19.23 149.843 19.662C149.843 20.094 149.843 20.54 149.843 21H147.899ZM87.6 38C87.66 37.552 87.718 37.104 87.774 36.656C87.83 36.208 87.89 35.722 87.954 35.198L88.308 32.33C88.376 31.814 88.438 31.326 88.494 30.866C88.55 30.406 88.608 29.932 88.668 29.444H90.666C90.858 29.932 91.04 30.4 91.212 30.848C91.388 31.292 91.562 31.734 91.734 32.174L92.754 34.79H92.886L93.876 32.18C94.044 31.736 94.21 31.296 94.374 30.86C94.542 30.424 94.718 29.952 94.902 29.444H96.876C96.936 29.924 96.994 30.394 97.05 30.854C97.11 31.314 97.174 31.808 97.242 32.336L97.608 35.216C97.672 35.736 97.732 36.216 97.788 36.656C97.848 37.096 97.906 37.544 97.962 38H96.084C96.012 37.4 95.942 36.83 95.874 36.29C95.806 35.75 95.744 35.244 95.688 34.772L95.436 32.744H95.304L94.56 34.922C94.38 35.458 94.198 35.99 94.014 36.518C93.834 37.042 93.666 37.536 93.51 38H92.202C92.09 37.7 91.968 37.378 91.836 37.034C91.708 36.69 91.576 36.34 91.44 35.984C91.304 35.624 91.17 35.272 91.038 34.928L90.21 32.744H90.078L89.832 34.76C89.776 35.236 89.714 35.746 89.646 36.29C89.582 36.83 89.514 37.4 89.442 38H87.6ZM99.4064 38C99.4064 37.54 99.4064 37.094 99.4064 36.662C99.4064 36.23 99.4064 35.746 99.4064 35.21V32.306C99.4064 31.754 99.4064 31.256 99.4064 30.812C99.4064 30.368 99.4064 29.912 99.4064 29.444H105.088V31.058C104.72 31.058 104.324 31.058 103.9 31.058C103.48 31.058 102.984 31.058 102.412 31.058H100.396L101.338 29.756C101.338 30.224 101.338 30.68 101.338 31.124C101.338 31.568 101.338 32.066 101.338 32.618V34.898C101.338 35.43 101.338 35.914 101.338 36.35C101.338 36.782 101.338 37.228 101.338 37.688L100.522 36.386H102.556C103.032 36.386 103.482 36.386 103.906 36.386C104.334 36.386 104.746 36.386 105.142 36.386V38H99.4064ZM100.888 34.436V32.936H102.454C102.982 32.936 103.434 32.936 103.81 32.936C104.186 32.936 104.548 32.936 104.896 32.936V34.436C104.528 34.436 104.156 34.436 103.78 34.436C103.404 34.436 102.962 34.436 102.454 34.436H100.888ZM112.093 37.682C112.093 37.222 112.093 36.776 112.093 36.344C112.093 35.912 112.093 35.428 112.093 34.892V32.618C112.093 32.066 112.093 31.568 112.093 31.124C112.093 30.68 112.093 30.224 112.093 29.756L112.675 31.088H108.721L109.693 29.858C109.665 30.362 109.635 30.87 109.603 31.382C109.575 31.89 109.545 32.398 109.513 32.906C109.477 33.502 109.423 34.02 109.351 34.46C109.279 34.896 109.171 35.282 109.027 35.618C108.883 35.95 108.687 36.262 108.439 36.554L106.555 36.368C106.751 36.192 106.929 35.946 107.089 35.63C107.253 35.31 107.391 34.896 107.503 34.388C107.619 33.88 107.697 33.254 107.737 32.51C107.769 31.97 107.801 31.442 107.833 30.926C107.865 30.41 107.893 29.916 107.917 29.444H114.073C114.073 29.912 114.073 30.368 114.073 30.812C114.073 31.256 114.073 31.754 114.073 32.306V34.892C114.073 35.428 114.073 35.912 114.073 36.344C114.073 36.776 114.073 37.222 114.073 37.682H112.093ZM105.865 39.824C105.865 39.54 105.865 39.256 105.865 38.972C105.865 38.692 105.865 38.41 105.865 38.126C105.865 37.834 105.865 37.54 105.865 37.244C105.865 36.944 105.865 36.648 105.865 36.356C106.405 36.356 106.951 36.356 107.503 36.356C108.055 36.356 108.593 36.356 109.117 36.356H111.919C112.447 36.356 112.987 36.356 113.539 36.356C114.091 36.356 114.637 36.356 115.177 36.356C115.177 36.648 115.177 36.944 115.177 37.244C115.177 37.54 115.177 37.834 115.177 38.126C115.177 38.41 115.177 38.692 115.177 38.972C115.177 39.256 115.177 39.54 115.177 39.824H113.521L113.413 37.694L113.761 38H107.275L107.629 37.694L107.521 39.824H105.865ZM116.252 38C116.252 37.54 116.252 37.094 116.252 36.662C116.252 36.23 116.252 35.746 116.252 35.21V32.306C116.252 31.754 116.252 31.256 116.252 30.812C116.252 30.368 116.252 29.912 116.252 29.444H118.178C118.178 29.916 118.178 30.376 118.178 30.824C118.178 31.268 118.178 31.766 118.178 32.318V34.724H118.316L119.702 32.678C120.054 32.162 120.408 31.64 120.764 31.112C121.124 30.584 121.5 30.028 121.892 29.444H123.566C123.566 29.912 123.566 30.368 123.566 30.812C123.566 31.256 123.566 31.754 123.566 32.306V35.21C123.566 35.746 123.566 36.23 123.566 36.662C123.566 37.094 123.566 37.54 123.566 38H121.64C121.64 37.536 121.64 37.088 121.64 36.656C121.64 36.224 121.64 35.738 121.64 35.198V32.72H121.502L120.104 34.766C119.68 35.39 119.29 35.964 118.934 36.488C118.578 37.008 118.234 37.512 117.902 38H116.252ZM131.864 39.824L131.756 37.694L132.104 38H125.252C125.252 37.54 125.252 37.094 125.252 36.662C125.252 36.23 125.252 35.746 125.252 35.21V32.306C125.252 31.754 125.252 31.256 125.252 30.812C125.252 30.368 125.252 29.912 125.252 29.444H127.226C127.226 29.912 127.226 30.368 127.226 30.812C127.226 31.256 127.226 31.754 127.226 32.306V34.892C127.226 35.428 127.226 35.912 127.226 36.344C127.226 36.776 127.226 37.222 127.226 37.682L126.314 36.356H130.274C130.798 36.356 131.334 36.356 131.882 36.356C132.434 36.356 132.98 36.356 133.52 36.356C133.52 36.644 133.52 36.938 133.52 37.238C133.52 37.538 133.52 37.834 133.52 38.126C133.52 38.406 133.52 38.688 133.52 38.972C133.52 39.256 133.52 39.54 133.52 39.824H131.864ZM130.442 37.682C130.442 37.222 130.442 36.776 130.442 36.344C130.442 35.912 130.442 35.428 130.442 34.892V32.306C130.442 31.754 130.442 31.256 130.442 30.812C130.442 30.368 130.442 29.912 130.442 29.444H132.422C132.422 29.912 132.422 30.368 132.422 30.812C132.422 31.256 132.422 31.754 132.422 32.306V34.892C132.422 35.428 132.422 35.912 132.422 36.344C132.422 36.776 132.422 37.222 132.422 37.682H130.442ZM134.592 38C134.592 37.54 134.592 37.094 134.592 36.662C134.592 36.23 134.592 35.746 134.592 35.21V32.306C134.592 31.754 134.592 31.256 134.592 30.812C134.592 30.368 134.592 29.912 134.592 29.444H136.518C136.518 29.916 136.518 30.376 136.518 30.824C136.518 31.268 136.518 31.766 136.518 32.318V34.724H136.656L138.042 32.678C138.394 32.162 138.748 31.64 139.104 31.112C139.464 30.584 139.84 30.028 140.232 29.444H141.906C141.906 29.912 141.906 30.368 141.906 30.812C141.906 31.256 141.906 31.754 141.906 32.306V35.21C141.906 35.746 141.906 36.23 141.906 36.662C141.906 37.094 141.906 37.54 141.906 38H139.98C139.98 37.536 139.98 37.088 139.98 36.656C139.98 36.224 139.98 35.738 139.98 35.198V32.72H139.842L138.444 34.766C138.02 35.39 137.63 35.964 137.274 36.488C136.918 37.008 136.574 37.512 136.242 38H134.592ZM148.926 38C148.926 37.54 148.926 37.094 148.926 36.662C148.926 36.23 148.926 35.746 148.926 35.21V32.306C148.926 31.754 148.926 31.256 148.926 30.812C148.926 30.368 148.926 29.912 148.926 29.444H150.906C150.906 29.912 150.906 30.368 150.906 30.812C150.906 31.256 150.906 31.754 150.906 32.306V35.21C150.906 35.746 150.906 36.23 150.906 36.662C150.906 37.094 150.906 37.54 150.906 38H148.926ZM143.592 38C143.592 37.54 143.592 37.094 143.592 36.662C143.592 36.23 143.592 35.746 143.592 35.21V32.306C143.592 31.754 143.592 31.256 143.592 30.812C143.592 30.368 143.592 29.912 143.592 29.444H145.566C145.566 29.912 145.566 30.368 145.566 30.812C145.566 31.256 145.566 31.754 145.566 32.306V35.21C145.566 35.746 145.566 36.23 145.566 36.662C145.566 37.094 145.566 37.54 145.566 38H143.592ZM145.026 34.514V32.87H149.508V34.514H145.026ZM156.036 38C155.352 38 154.73 38 154.17 38C153.614 38 153.086 38 152.586 38C152.586 37.54 152.586 37.094 152.586 36.662C152.586 36.23 152.586 35.746 152.586 35.21V32.306C152.586 31.754 152.586 31.256 152.586 30.812C152.586 30.368 152.586 29.912 152.586 29.444H154.53C154.53 29.912 154.53 30.368 154.53 30.812C154.53 31.256 154.53 31.754 154.53 32.306V34.892C154.53 35.18 154.53 35.454 154.53 35.714C154.53 35.974 154.53 36.236 154.53 36.5H155.658C156.006 36.5 156.288 36.454 156.504 36.362C156.724 36.27 156.886 36.126 156.99 35.93C157.098 35.734 157.152 35.482 157.152 35.174C157.152 34.926 157.116 34.724 157.044 34.568C156.972 34.408 156.874 34.286 156.75 34.202C156.626 34.114 156.488 34.052 156.336 34.016C156.188 33.98 156.036 33.962 155.88 33.962H154.29V32.414C154.526 32.414 154.784 32.414 155.064 32.414C155.348 32.414 155.666 32.414 156.018 32.414C156.71 32.414 157.288 32.5 157.752 32.672C158.22 32.844 158.57 33.13 158.802 33.53C159.038 33.926 159.156 34.462 159.156 35.138C159.156 35.702 159.054 36.2 158.85 36.632C158.65 37.064 158.322 37.4 157.866 37.64C157.41 37.88 156.8 38 156.036 38ZM160.272 38C160.272 37.54 160.272 37.094 160.272 36.662C160.272 36.23 160.272 35.746 160.272 35.21V32.306C160.272 31.754 160.272 31.256 160.272 30.812C160.272 30.368 160.272 29.912 160.272 29.444H162.288C162.288 29.912 162.288 30.368 162.288 30.812C162.288 31.256 162.288 31.754 162.288 32.306V35.21C162.288 35.746 162.288 36.23 162.288 36.662C162.288 37.094 162.288 37.54 162.288 38H160.272ZM171.206 38C170.942 37.62 170.692 37.264 170.456 36.932C170.224 36.596 169.996 36.266 169.772 35.942L168.644 34.328H168.092V32.78H168.62L169.628 31.46C169.868 31.148 170.106 30.838 170.342 30.53C170.578 30.218 170.852 29.856 171.164 29.444H173.438C173.066 29.896 172.702 30.34 172.346 30.776C171.994 31.212 171.64 31.652 171.284 32.096L169.928 33.77L169.892 32.9L171.398 34.982C171.63 35.302 171.878 35.646 172.142 36.014C172.41 36.382 172.67 36.74 172.922 37.088C173.174 37.436 173.396 37.74 173.588 38H171.206ZM166.28 38C166.28 37.54 166.28 37.094 166.28 36.662C166.28 36.23 166.28 35.746 166.28 35.21V32.306C166.28 31.754 166.28 31.256 166.28 30.812C166.28 30.368 166.28 29.912 166.28 29.444H168.248C168.248 29.912 168.248 30.368 168.248 30.812C168.248 31.256 168.248 31.754 168.248 32.306V35.21C168.248 35.746 168.248 36.23 168.248 36.662C168.248 37.094 168.248 37.54 168.248 38H166.28ZM174.065 38C174.217 37.54 174.375 37.056 174.539 36.548C174.707 36.04 174.865 35.558 175.013 35.102L175.979 32.168C176.151 31.636 176.307 31.158 176.447 30.734C176.587 30.306 176.727 29.876 176.867 29.444H179.411C179.555 29.892 179.695 30.328 179.831 30.752C179.971 31.176 180.127 31.648 180.299 32.168L181.253 35.108C181.409 35.58 181.567 36.066 181.727 36.566C181.891 37.066 182.047 37.544 182.195 38H180.155C180.027 37.544 179.895 37.078 179.759 36.602C179.623 36.122 179.493 35.668 179.369 35.24L178.193 31.118H178.049L176.861 35.198C176.733 35.642 176.597 36.108 176.453 36.596C176.313 37.08 176.177 37.548 176.045 38H174.065ZM176.129 36.212L176.339 34.736H180.161L180.329 36.212H176.129ZM184.322 38C184.322 37.54 184.322 37.094 184.322 36.662C184.322 36.23 184.322 35.746 184.322 35.21V32.618C184.322 32.066 184.322 31.568 184.322 31.124C184.322 30.68 184.322 30.224 184.322 29.756L185.066 31.166H183.932C183.48 31.166 183.08 31.166 182.732 31.166C182.384 31.166 182.052 31.166 181.736 31.166V29.444H188.87V31.166C188.558 31.166 188.228 31.166 187.88 31.166C187.532 31.166 187.13 31.166 186.674 31.166H185.54L186.29 29.756C186.29 30.224 186.29 30.68 186.29 31.124C186.29 31.568 186.29 32.066 186.29 32.618V35.21C186.29 35.746 186.29 36.23 186.29 36.662C186.29 37.094 186.29 37.54 186.29 38H184.322ZM188.42 38C188.572 37.54 188.73 37.056 188.894 36.548C189.062 36.04 189.22 35.558 189.368 35.102L190.334 32.168C190.506 31.636 190.662 31.158 190.802 30.734C190.942 30.306 191.082 29.876 191.222 29.444H193.766C193.91 29.892 194.05 30.328 194.186 30.752C194.326 31.176 194.482 31.648 194.654 32.168L195.608 35.108C195.764 35.58 195.922 36.066 196.082 36.566C196.246 37.066 196.402 37.544 196.55 38H194.51C194.382 37.544 194.25 37.078 194.114 36.602C193.978 36.122 193.848 35.668 193.724 35.24L192.548 31.118H192.404L191.216 35.198C191.088 35.642 190.952 36.108 190.808 36.596C190.668 37.08 190.532 37.548 190.4 38H188.42ZM190.484 36.212L190.694 34.736H194.516L194.684 36.212H190.484ZM201.398 38.162C200.702 38.162 200.076 38.056 199.52 37.844C198.964 37.632 198.488 37.33 198.092 36.938C197.7 36.542 197.4 36.074 197.192 35.534C196.984 34.99 196.88 34.388 196.88 33.728C196.88 32.872 197.054 32.108 197.402 31.436C197.75 30.76 198.25 30.23 198.902 29.846C199.554 29.462 200.334 29.27 201.242 29.27C201.518 29.27 201.79 29.288 202.058 29.324C202.33 29.36 202.59 29.408 202.838 29.468C203.086 29.528 203.316 29.598 203.528 29.678C203.744 29.754 203.936 29.836 204.104 29.924L203.954 31.76C203.642 31.564 203.342 31.408 203.054 31.292C202.766 31.172 202.488 31.086 202.22 31.034C201.956 30.978 201.704 30.95 201.464 30.95C200.976 30.95 200.542 31.058 200.162 31.274C199.782 31.486 199.482 31.8 199.262 32.216C199.046 32.628 198.938 33.132 198.938 33.728C198.938 34.108 198.994 34.468 199.106 34.808C199.218 35.144 199.386 35.442 199.61 35.702C199.838 35.962 200.122 36.166 200.462 36.314C200.802 36.462 201.2 36.536 201.656 36.536C201.844 36.536 202.032 36.524 202.22 36.5C202.412 36.472 202.604 36.43 202.796 36.374C202.988 36.318 203.18 36.242 203.372 36.146C203.564 36.046 203.756 35.926 203.948 35.786L204.056 37.598C203.884 37.694 203.694 37.778 203.486 37.85C203.278 37.922 203.058 37.98 202.826 38.024C202.598 38.072 202.362 38.106 202.118 38.126C201.878 38.15 201.638 38.162 201.398 38.162ZM207.525 38C207.525 37.54 207.525 37.094 207.525 36.662C207.525 36.23 207.525 35.746 207.525 35.21V32.618C207.525 32.066 207.525 31.568 207.525 31.124C207.525 30.68 207.525 30.224 207.525 29.756L208.269 31.166H207.135C206.683 31.166 206.283 31.166 205.935 31.166C205.587 31.166 205.255 31.166 204.939 31.166V29.444H212.073V31.166C211.761 31.166 211.431 31.166 211.083 31.166C210.735 31.166 210.333 31.166 209.877 31.166H208.743L209.493 29.756C209.493 30.224 209.493 30.68 209.493 31.124C209.493 31.568 209.493 32.066 209.493 32.618V35.21C209.493 35.746 209.493 36.23 209.493 36.662C209.493 37.094 209.493 37.54 209.493 38H207.525ZM213.219 38C213.219 37.54 213.219 37.094 213.219 36.662C213.219 36.23 213.219 35.746 213.219 35.21V32.306C213.219 31.754 213.219 31.256 213.219 30.812C213.219 30.368 213.219 29.912 213.219 29.444C213.567 29.444 214.033 29.444 214.617 29.444C215.205 29.444 215.883 29.444 216.651 29.444C217.343 29.444 217.921 29.53 218.385 29.702C218.853 29.874 219.203 30.158 219.435 30.554C219.671 30.946 219.789 31.474 219.789 32.138C219.789 32.702 219.689 33.2 219.489 33.632C219.289 34.06 218.965 34.396 218.517 34.64C218.069 34.88 217.477 35 216.741 35C216.545 35 216.335 35 216.111 35C215.891 35 215.675 35 215.463 35C215.251 35 215.069 35 214.917 35V33.5H216.291C216.635 33.5 216.917 33.454 217.137 33.362C217.357 33.27 217.519 33.128 217.623 32.936C217.731 32.74 217.785 32.488 217.785 32.18C217.785 31.936 217.747 31.736 217.671 31.58C217.599 31.424 217.501 31.304 217.377 31.22C217.253 31.136 217.115 31.078 216.963 31.046C216.815 31.01 216.665 30.992 216.513 30.992H214.221L215.163 29.756C215.163 30.224 215.163 30.68 215.163 31.124C215.163 31.568 215.163 32.066 215.163 32.618V35.21C215.163 35.746 215.163 36.23 215.163 36.662C215.163 37.094 215.163 37.54 215.163 38H213.219ZM225.098 38.162C224.326 38.162 223.658 38.044 223.094 37.808C222.53 37.568 222.066 37.242 221.702 36.83C221.338 36.414 221.066 35.94 220.886 35.408C220.71 34.876 220.622 34.316 220.622 33.728C220.622 32.896 220.786 32.144 221.114 31.472C221.446 30.796 221.938 30.26 222.59 29.864C223.246 29.468 224.064 29.27 225.044 29.27C225.788 29.27 226.438 29.386 226.994 29.618C227.55 29.846 228.012 30.164 228.38 30.572C228.752 30.98 229.03 31.452 229.214 31.988C229.398 32.524 229.49 33.1 229.49 33.716C229.49 34.568 229.32 35.328 228.98 35.996C228.644 36.664 228.15 37.192 227.498 37.58C226.846 37.968 226.046 38.162 225.098 38.162ZM225.068 36.536C225.464 36.536 225.81 36.462 226.106 36.314C226.402 36.162 226.648 35.954 226.844 35.69C227.04 35.426 227.186 35.126 227.282 34.79C227.382 34.45 227.432 34.092 227.432 33.716C227.432 33.32 227.378 32.952 227.27 32.612C227.166 32.268 227.012 31.968 226.808 31.712C226.608 31.456 226.362 31.256 226.07 31.112C225.778 30.968 225.444 30.896 225.068 30.896C224.68 30.896 224.336 30.97 224.036 31.118C223.74 31.266 223.492 31.472 223.292 31.736C223.092 31.996 222.94 32.296 222.836 32.636C222.732 32.976 222.68 33.336 222.68 33.716C222.68 34.096 222.73 34.456 222.83 34.796C222.93 35.132 223.078 35.432 223.274 35.696C223.474 35.956 223.722 36.162 224.018 36.314C224.318 36.462 224.668 36.536 225.068 36.536ZM235.417 37.256L235.447 35.78H236.179C236.699 35.78 237.113 35.698 237.421 35.534C237.729 35.37 237.951 35.136 238.087 34.832C238.223 34.524 238.291 34.158 238.291 33.734C238.291 33.298 238.223 32.926 238.087 32.618C237.951 32.31 237.731 32.074 237.427 31.91C237.123 31.746 236.717 31.664 236.209 31.664H235.507L235.477 30.188H236.233C237.197 30.188 237.977 30.338 238.573 30.638C239.173 30.934 239.611 31.348 239.887 31.88C240.163 32.408 240.301 33.026 240.301 33.734C240.301 34.414 240.163 35.02 239.887 35.552C239.615 36.08 239.175 36.496 238.567 36.8C237.963 37.104 237.157 37.256 236.149 37.256H235.417ZM234.475 37.256C233.719 37.256 233.077 37.17 232.549 36.998C232.021 36.822 231.593 36.576 231.265 36.26C230.937 35.944 230.697 35.572 230.545 35.144C230.397 34.716 230.323 34.246 230.323 33.734C230.323 33.026 230.461 32.408 230.737 31.88C231.013 31.348 231.449 30.934 232.045 30.638C232.645 30.338 233.427 30.188 234.391 30.188H235.141L235.105 31.664H234.409C233.905 31.664 233.499 31.746 233.191 31.91C232.887 32.074 232.667 32.31 232.531 32.618C232.395 32.926 232.327 33.298 232.327 33.734C232.327 34.158 232.395 34.524 232.531 34.832C232.667 35.136 232.889 35.37 233.197 35.534C233.505 35.698 233.919 35.78 234.439 35.78H235.165L235.201 37.256H234.475ZM234.337 38.186C234.337 37.982 234.337 37.786 234.337 37.598C234.337 37.406 234.337 37.212 234.337 37.016L234.397 36.98C234.397 36.704 234.397 36.422 234.397 36.134C234.397 35.842 234.397 35.538 234.397 35.222V32.222C234.397 31.906 234.397 31.604 234.397 31.316C234.397 31.024 234.397 30.74 234.397 30.464L234.337 30.428C234.337 30.232 234.337 30.04 234.337 29.852C234.337 29.66 234.337 29.462 234.337 29.258H236.281C236.281 29.462 236.281 29.66 236.281 29.852C236.281 30.04 236.281 30.232 236.281 30.428L236.221 30.464C236.221 30.74 236.221 31.024 236.221 31.316C236.221 31.604 236.221 31.906 236.221 32.222V35.222C236.221 35.538 236.221 35.84 236.221 36.128C236.221 36.416 236.221 36.7 236.221 36.98L236.281 37.016C236.281 37.208 236.281 37.4 236.281 37.592C236.281 37.784 236.281 37.982 236.281 38.186H234.337ZM246.038 38.024L244.286 37.916C244.618 37.432 244.95 36.948 245.282 36.464C245.614 35.976 245.948 35.49 246.284 35.006V34.856C245.948 34.376 245.614 33.896 245.282 33.416C244.95 32.932 244.618 32.45 244.286 31.97L246.038 31.88C246.39 32.392 246.74 32.904 247.088 33.416C247.44 33.928 247.792 34.44 248.144 34.952C247.792 35.464 247.44 35.976 247.088 36.488C246.74 37 246.39 37.512 246.038 38.024ZM242.828 38.024L241.076 37.916C241.408 37.432 241.74 36.948 242.072 36.464C242.404 35.976 242.736 35.49 243.068 35.006V34.856C242.736 34.376 242.404 33.896 242.072 33.416C241.74 32.932 241.408 32.45 241.076 31.97L242.828 31.88C243.18 32.392 243.53 32.904 243.878 33.416C244.23 33.928 244.58 34.44 244.928 34.952C244.58 35.464 244.23 35.976 243.878 36.488C243.53 37 243.18 37.512 242.828 38.024Z" fill="#27292D"/>
    </g>
    <defs>
        <clipPath id="clip0_2721_92642">
            <rect width="248" height="50" fill="white"/>
        </clipPath>
    </defs>
</svg>
