<svg width="17" height="17" viewBox="0 0 17 17" fill="none" xmlns="http://www.w3.org/2000/svg">
    <path d="M15.9375 16.8938C15.8145 16.8953 15.6926 16.871 15.5796 16.8226C15.4666 16.7741 15.365 16.7026 15.2812 16.6125L0.28125 1.6125C-0.09375 1.2375 -0.09375 0.65625 0.28125 0.28125C0.65625 -0.09375 1.2375 -0.09375 1.6125 0.28125L16.5938 15.3C16.9688 15.675 16.9688 16.2563 16.5938 16.6313C16.4062 16.8188 16.1625 16.9125 15.9375 16.9125V16.8938Z" fill="#27292D"/>
    <path d="M0.9375 16.8936C0.814545 16.8951 0.692638 16.8708 0.579616 16.8224C0.466595 16.7739 0.364961 16.7024 0.28125 16.6123C-0.09375 16.2373 -0.09375 15.6561 0.28125 15.2811L15.2812 0.299805C15.6562 -0.0751953 16.2375 -0.0751953 16.6125 0.299805C16.9875 0.674805 16.9875 1.25605 16.6125 1.63105L1.59375 16.6123C1.40625 16.7998 1.1625 16.8936 0.9375 16.8936Z" fill="#27292D"/>
</svg>
